<svg xmlns="http://www.w3.org/2000/svg" width="16" height="16.511" viewBox="0 0 16 16.511">
  <g id="Group_657" data-name="Group 657" transform="translate(-657.5 -7720.745)">
    <path id="Path_1326" data-name="Path 1326" d="M36.4,12.244H32.45l-2.616,3.717h.085l-1.132,1.595a1.867,1.867,0,1,0,3.029,2.183l1.849-2.588,3.273-4.784A1.14,1.14,0,0,0,37,12.244Z" transform="translate(636.5 7708.5)" fill="#00a9de"/>
    <path id="Path_1327" data-name="Path 1327" d="M22.692,12.245v3.717h7.142l2.616-3.717Z" transform="translate(636.5 7708.5)" fill="#00a9de"/>
    <path id="Path_1328" data-name="Path 1328" d="M22.692,12.245v3.717h7.142l2.616-3.717Z" transform="translate(636.5 7708.5)" fill="#253040" opacity="0.3"/>
    <path id="Path_1329" data-name="Path 1329" d="M28.264,24.732l.377-.528.511-.712a1.859,1.859,0,1,0-3.017-2.171L24.528,23.6,21,28.756h4.417Z" transform="translate(636.5 7708.5)" fill="#b2f000"/>
    <path id="Path_1330" data-name="Path 1330" d="M35.868,24.732h-7.6l-2.847,4.011H35.868Z" transform="translate(636.5 7708.5)" fill="#b2f000"/>
    <path id="Path_1331" data-name="Path 1331" d="M35.868,24.732h-7.6l-2.847,4.011H35.868Z" transform="translate(636.5 7708.5)" fill="#253040" opacity="0.3"/>
  </g>
</svg>
