<svg width="232" height="36" viewBox="0 0 232 36" fill="none" xmlns="http://www.w3.org/2000/svg">
<rect x="0.5" y="0.5" width="231" height="35" rx="1.5" fill="#F3FCFF" fill-opacity="0.5"/>
<g clip-path="url(#clip0)">
<path d="M67.9164 16.8907H69.9255C70.9816 16.8907 71.5442 16.3396 71.5442 15.5911C71.5442 14.8954 71.0459 14.4752 70.511 14.4499V14.404C71 14.2938 71.3605 13.947 71.3605 13.3937C71.3605 12.6887 70.837 12.1882 69.7992 12.1882H67.9164V16.8907ZM68.9105 16.0779V14.8288H69.744C70.2217 14.8288 70.5179 15.1043 70.5179 15.4923C70.5179 15.8459 70.2769 16.0779 69.7212 16.0779H68.9105ZM68.9105 14.156V12.9918H69.666C70.1069 12.9918 70.3571 13.2192 70.3571 13.559C70.3571 13.931 70.054 14.156 69.6476 14.156H68.9105ZM73.1784 16.9573C73.6998 16.9573 74.0372 16.73 74.2096 16.4016H74.237V16.8907H75.1647V14.5119C75.1647 13.6715 74.4528 13.3179 73.6676 13.3179C72.8226 13.3179 72.267 13.722 72.1316 14.3649L73.0362 14.4384C73.1027 14.2042 73.3116 14.032 73.663 14.032C73.996 14.032 74.1865 14.1996 74.1865 14.4889V14.5027C74.1865 14.73 73.9455 14.7599 73.3324 14.8196C72.6343 14.8839 72.0075 15.1181 72.0075 15.9057C72.0075 16.6037 72.5058 16.9573 73.1784 16.9573ZM73.4587 16.2822C73.1578 16.2822 72.942 16.1422 72.942 15.8735C72.942 15.598 73.1694 15.4625 73.5137 15.4143C73.7272 15.3844 74.0764 15.3339 74.1934 15.2558V15.6301C74.1934 15.9998 73.8881 16.2822 73.4587 16.2822ZM76.9016 14.8517C76.904 14.3971 77.175 14.1307 77.5698 14.1307C77.9624 14.1307 78.199 14.3879 78.1968 14.8196V16.8907H79.1748V14.6451C79.1748 13.8231 78.6927 13.3179 77.958 13.3179C77.4344 13.3179 77.0556 13.5751 76.8972 13.9861H76.8557V13.3638H75.9236V16.8907H76.9016V14.8517ZM79.9459 16.8907H80.924V15.7702L81.1881 15.4694L82.1501 16.8907H83.2958L81.9206 14.8908L83.2293 13.3638H82.1065L80.9768 14.7025H80.924V12.1882H79.9459V16.8907Z" fill="#26536B"/>
<path d="M67.7363 20.0801H69.176V23.9628H70.1588V20.0801H71.5985V19.2603H67.7363V20.0801ZM71.8499 23.9628H72.8281V21.9675C72.8281 21.5335 73.1449 21.235 73.5767 21.235C73.7121 21.235 73.8982 21.258 73.9899 21.2878V20.4199C73.9026 20.3992 73.781 20.3855 73.6822 20.3855C73.2873 20.3855 72.9636 20.6151 72.8349 21.0513H72.7984V20.436H71.8499V23.9628ZM75.4003 24.0294C75.9216 24.0294 76.259 23.8021 76.4314 23.4738H76.4589V23.9628H77.3865V21.584C77.3865 20.7437 76.6747 20.39 75.8895 20.39C75.0445 20.39 74.4888 20.7942 74.3534 21.4371L75.258 21.5106C75.3245 21.2763 75.5334 21.1041 75.8848 21.1041C76.2178 21.1041 76.4084 21.2718 76.4084 21.5611V21.5748C76.4084 21.8022 76.1673 21.832 75.5543 21.8917C74.8561 21.956 74.2293 22.1902 74.2293 22.9778C74.2293 23.6758 74.7276 24.0294 75.4003 24.0294ZM75.6805 23.3544C75.3797 23.3544 75.1639 23.2143 75.1639 22.9456C75.1639 22.6701 75.3912 22.5346 75.7355 22.4864C75.9491 22.4566 76.2982 22.4061 76.4152 22.328V22.7023C76.4152 23.0719 76.1099 23.3544 75.6805 23.3544ZM79.1235 21.9239C79.1259 21.4692 79.3968 21.2029 79.7917 21.2029C80.1843 21.2029 80.4209 21.46 80.4187 21.8917V23.9628H81.3966V21.7172C81.3966 20.8952 80.9145 20.39 80.1798 20.39C79.6563 20.39 79.2774 20.6472 79.119 21.0582H79.0776V20.436H78.1455V23.9628H79.1235V21.9239ZM85.1022 21.4417C85.0149 20.7919 84.4914 20.39 83.6005 20.39C82.6981 20.39 82.1034 20.8079 82.1057 21.4876C82.1034 22.0157 82.4362 22.3578 83.1251 22.4956L83.7359 22.6173C84.0436 22.6793 84.1837 22.7918 84.1883 22.9686C84.1837 23.1776 83.9563 23.3268 83.6143 23.3268C83.2653 23.3268 83.0333 23.1776 82.9735 22.8905L82.0115 22.9411C82.1034 23.6161 82.6775 24.0317 83.612 24.0317C84.5258 24.0317 85.1802 23.5656 85.1825 22.8699C85.1802 22.3601 84.8472 22.0547 84.1631 21.9147L83.5247 21.7861C83.1964 21.7149 83.0746 21.6024 83.077 21.4325C83.0746 21.2212 83.3134 21.0835 83.6165 21.0835C83.9563 21.0835 84.1584 21.2695 84.2067 21.4968L85.1022 21.4417ZM87.6951 20.436H86.9947V20.1995C86.9947 19.9607 87.0911 19.8206 87.3782 19.8206C87.4952 19.8206 87.6147 19.8459 87.6929 19.8711L87.865 19.1363C87.7434 19.0996 87.4746 19.0399 87.1738 19.0399C86.5102 19.0399 86.0166 19.4142 86.0166 20.1811V20.436H85.5183V21.1707H86.0166V23.9628H86.9947V21.1707H87.6951V20.436ZM89.7737 24.0317C90.6462 24.0317 91.234 23.6069 91.3718 22.9525L90.4671 22.8928C90.3683 23.1615 90.1158 23.3016 89.7896 23.3016C89.3006 23.3016 88.9907 22.9778 88.9907 22.452V22.4497H91.3924V22.181C91.3924 20.9824 90.6668 20.39 89.7347 20.39C88.6967 20.39 88.024 21.1271 88.024 22.2155C88.024 23.3337 88.6876 24.0317 89.7737 24.0317ZM88.9907 21.8435C89.0113 21.4417 89.3168 21.1202 89.7506 21.1202C90.1756 21.1202 90.4694 21.4233 90.4716 21.8435H88.9907ZM92.0307 23.9628H93.0089V21.9675C93.0089 21.5335 93.3257 21.235 93.7575 21.235C93.8929 21.235 94.079 21.258 94.1707 21.2878V20.4199C94.0834 20.3992 93.9618 20.3855 93.8632 20.3855C93.4682 20.3855 93.1445 20.6151 93.0157 21.0513H92.979V20.436H92.0307V23.9628Z" fill="#26536B"/>
<path d="M55.1811 23.0718H59.1924V25.2779L63.6671 20.8657L59.1924 16.4535V18.6596H51.1692V20.8657L46.6946 16.4535L51.1692 12.0413V14.2474L55.1811 14.2466" stroke="#26536B" stroke-width="1.21236" stroke-linecap="round" stroke-linejoin="round"/>
</g>
<path fill-rule="evenodd" clip-rule="evenodd" d="M132.538 25.7814V25.8225H132.576C132.583 25.8226 132.59 25.8208 132.597 25.8173C132.602 25.8137 132.605 25.8078 132.604 25.8016C132.605 25.7954 132.602 25.7896 132.597 25.7862C132.591 25.7825 132.583 25.7807 132.576 25.781H132.538V25.7814ZM132.577 25.7523C132.593 25.7513 132.609 25.756 132.623 25.7657C132.633 25.7746 132.639 25.7881 132.639 25.8021C132.639 25.8141 132.635 25.8258 132.626 25.834C132.616 25.843 132.603 25.8484 132.589 25.8494L132.64 25.9079H132.601L132.554 25.8498H132.538V25.9079H132.505V25.7524H132.577L132.577 25.7523ZM132.566 25.9616C132.584 25.9618 132.601 25.9583 132.617 25.9513C132.632 25.9447 132.646 25.9353 132.658 25.9235C132.67 25.9117 132.679 25.8978 132.686 25.8824C132.699 25.8498 132.699 25.8132 132.686 25.7806C132.679 25.7652 132.67 25.7513 132.658 25.7394C132.646 25.7276 132.632 25.7182 132.617 25.7116C132.601 25.705 132.584 25.7017 132.566 25.7019C132.549 25.7018 132.531 25.705 132.515 25.7116C132.499 25.718 132.485 25.7275 132.473 25.7394C132.436 25.7775 132.425 25.8344 132.445 25.8834C132.452 25.8988 132.461 25.9128 132.473 25.9245C132.485 25.9364 132.499 25.9459 132.515 25.9524C132.531 25.9593 132.549 25.9628 132.566 25.9627V25.9616ZM132.566 25.6645C132.611 25.6644 132.655 25.6822 132.687 25.7138C132.703 25.729 132.715 25.7472 132.724 25.7672C132.741 25.8087 132.741 25.8558 132.724 25.8973C132.715 25.9171 132.702 25.9353 132.687 25.9506C132.671 25.9657 132.653 25.9779 132.633 25.9866C132.612 25.9955 132.589 26.0001 132.566 26C132.543 26.0001 132.52 25.9956 132.499 25.9866C132.479 25.9781 132.46 25.9659 132.444 25.9506C132.429 25.9347 132.417 25.916 132.408 25.8956C132.391 25.854 132.391 25.807 132.408 25.7654C132.417 25.7454 132.429 25.7273 132.445 25.7121C132.46 25.6965 132.479 25.6843 132.499 25.6761C132.521 25.6671 132.544 25.6626 132.567 25.6628L132.566 25.6645ZM116.823 25.0637C116.823 24.7671 117.017 24.5234 117.335 24.5234C117.639 24.5234 117.843 24.7566 117.843 25.0637C117.843 25.3709 117.639 25.604 117.335 25.604C117.017 25.604 116.823 25.3603 116.823 25.0637ZM118.189 25.0637V24.2196H117.822V24.4253C117.706 24.2733 117.529 24.178 117.289 24.178C116.816 24.178 116.445 24.549 116.445 25.0642C116.445 25.5794 116.816 25.9503 117.289 25.9503C117.529 25.9503 117.706 25.8549 117.822 25.703V25.9079H118.189V25.0637H118.189ZM130.588 25.0637C130.588 24.7671 130.782 24.5234 131.1 24.5234C131.404 24.5234 131.608 24.7566 131.608 25.0637C131.608 25.3709 131.404 25.604 131.1 25.604C130.783 25.604 130.588 25.3603 130.588 25.0637ZM131.955 25.0637V23.5421H131.587V24.4253C131.471 24.2733 131.295 24.178 131.055 24.178C130.582 24.178 130.21 24.549 130.21 25.0642C130.21 25.5794 130.581 25.9503 131.055 25.9503C131.295 25.9503 131.471 25.8549 131.587 25.703V25.9079H131.955V25.0637ZM122.744 24.506C122.98 24.506 123.132 24.6544 123.171 24.9154H122.295C122.334 24.6717 122.482 24.506 122.744 24.506H122.744ZM122.751 24.1771C122.257 24.1771 121.911 24.5369 121.911 25.0632C121.911 25.5998 122.27 25.9494 122.776 25.9494C123.03 25.9494 123.263 25.886 123.467 25.7129L123.288 25.441C123.146 25.5541 122.966 25.6175 122.797 25.6175C122.56 25.6175 122.345 25.508 122.292 25.2042H123.545C123.549 25.1586 123.552 25.1125 123.552 25.0631C123.549 24.537 123.223 24.1769 122.751 24.1769L122.751 24.1771ZM127.181 25.0631C127.181 24.7665 127.376 24.5228 127.693 24.5228C127.997 24.5228 128.201 24.756 128.201 25.0631C128.201 25.3702 127.997 25.6034 127.693 25.6034C127.376 25.6034 127.181 25.3597 127.181 25.0631H127.181ZM128.547 25.0631V24.2196H128.181V24.4253C128.064 24.2733 127.888 24.178 127.648 24.178C127.175 24.178 126.803 24.549 126.803 25.0642C126.803 25.5794 127.174 25.9503 127.648 25.9503C127.888 25.9503 128.064 25.8549 128.181 25.703V25.9079H128.547V25.0637L128.547 25.0631ZM125.109 25.0631C125.109 25.5751 125.465 25.9493 126.009 25.9493C126.263 25.9493 126.433 25.8928 126.616 25.7481L126.44 25.4515C126.302 25.5505 126.157 25.6034 125.997 25.6034C125.705 25.5998 125.489 25.388 125.489 25.0631C125.489 24.7382 125.705 24.5265 125.997 24.5228C126.157 24.5228 126.301 24.5758 126.44 24.6748L126.616 24.3782C126.432 24.2335 126.263 24.1769 126.009 24.1769C125.465 24.1769 125.109 24.5511 125.109 25.0631ZM129.84 24.1769C129.628 24.1769 129.49 24.2759 129.395 24.4242V24.2196H129.031V25.907H129.398V24.9611C129.398 24.6819 129.518 24.5267 129.758 24.5267C129.837 24.5256 129.915 24.54 129.988 24.5692L130.101 24.2233C130.02 24.1913 129.914 24.1773 129.839 24.1773L129.84 24.1769ZM120.004 24.3538C119.827 24.2374 119.584 24.1773 119.315 24.1773C118.888 24.1773 118.613 24.3822 118.613 24.7175C118.613 24.9926 118.818 25.1624 119.195 25.2153L119.368 25.24C119.569 25.2682 119.664 25.3212 119.664 25.4165C119.664 25.547 119.531 25.6214 119.28 25.6214C119.026 25.6214 118.842 25.5402 118.719 25.4449L118.546 25.731C118.747 25.8793 119.001 25.95 119.277 25.95C119.764 25.95 120.047 25.7205 120.047 25.3992C120.047 25.1026 119.824 24.9475 119.457 24.8945L119.284 24.8694C119.125 24.8489 118.998 24.8169 118.998 24.7038C118.998 24.5804 119.118 24.5062 119.319 24.5062C119.535 24.5062 119.743 24.5874 119.845 24.6508L120.004 24.3542L120.004 24.3538ZM124.738 24.1775C124.527 24.1775 124.389 24.2766 124.294 24.4248V24.2196H123.93V25.907H124.297V24.9611C124.297 24.6819 124.417 24.5267 124.657 24.5267C124.736 24.5256 124.813 24.54 124.886 24.5692L125 24.2233C124.918 24.1913 124.812 24.1773 124.738 24.1773L124.738 24.1775ZM121.607 24.2196H121.007V23.7077H120.636V24.2196H120.294V24.555H120.636V25.3248C120.636 25.7163 120.788 25.9495 121.222 25.9495C121.381 25.9495 121.565 25.9001 121.681 25.819L121.575 25.5048C121.466 25.5683 121.346 25.6003 121.25 25.6003C121.067 25.6003 121.007 25.4871 121.007 25.3178V24.5553H121.607V24.2196ZM116.121 25.9075V24.8485C116.121 24.4496 115.867 24.1813 115.457 24.1777C115.241 24.1741 115.019 24.2411 114.864 24.4779C114.747 24.2908 114.564 24.1777 114.306 24.1777C114.126 24.1777 113.95 24.2306 113.812 24.4283V24.2196H113.445V25.907H113.815V24.9714C113.815 24.6785 113.977 24.5228 114.228 24.5228C114.472 24.5228 114.595 24.6817 114.595 24.9677V25.9068H114.966V24.9712C114.966 24.6783 115.135 24.5226 115.379 24.5226C115.629 24.5226 115.749 24.6815 115.749 24.9675V25.9066L116.121 25.9075Z" fill="#231F20"/>
<path fill-rule="evenodd" clip-rule="evenodd" d="M132.747 20.2941V20.0473H132.683L132.608 20.2166L132.535 20.0473H132.47V20.2941H132.516V20.1082L132.585 20.2685H132.633L132.702 20.1078V20.2941H132.747H132.747ZM132.339 20.2941V20.0896H132.422V20.0479H132.211V20.0896H132.294V20.2941H132.339Z" fill="#F79410"/>
<path fill-rule="evenodd" clip-rule="evenodd" d="M125.443 21.3526H119.882V11.3589H125.443L125.443 21.3526Z" fill="#FF5F00"/>
<path fill-rule="evenodd" clip-rule="evenodd" d="M120.235 16.3558C120.235 14.3286 121.184 12.5227 122.662 11.3589C121.544 10.4769 120.159 9.99787 118.735 10C115.225 10 112.38 12.8456 112.38 16.3558C112.38 19.866 115.225 22.7116 118.735 22.7116C120.159 22.7137 121.544 22.2347 122.662 21.3527C121.184 20.1891 120.235 18.3831 120.235 16.3558Z" fill="#EB001B"/>
<path fill-rule="evenodd" clip-rule="evenodd" d="M132.946 16.3558C132.946 19.866 130.101 22.7116 126.591 22.7116C125.166 22.7136 123.782 22.2347 122.663 21.3527C124.141 20.1889 125.091 18.3831 125.091 16.3558C125.091 14.3285 124.141 12.5227 122.663 11.3589C123.782 10.4769 125.166 9.99794 126.591 10C130.101 10 132.946 12.8456 132.946 16.3558" fill="#F79410"/>
<path fill-rule="evenodd" clip-rule="evenodd" d="M168.961 16.197C168.943 17.5899 170.202 18.3673 171.151 18.8295C172.125 19.3037 172.453 19.6078 172.449 20.0318C172.441 20.6809 171.672 20.9673 170.951 20.9784C169.694 20.9979 168.963 20.639 168.382 20.3675L167.929 22.4866C168.512 22.7554 169.591 22.9898 170.711 23C173.339 23 175.058 21.7028 175.067 19.6915C175.078 17.139 171.537 16.9976 171.561 15.8566C171.569 15.5107 171.899 15.1415 172.623 15.0476C172.981 15.0002 173.969 14.9639 175.09 15.48L175.53 13.4297C174.927 13.2102 174.152 13 173.188 13C170.715 13 168.975 14.3149 168.961 16.197ZM179.756 13.1767C179.276 13.1767 178.872 13.4566 178.691 13.8862L174.937 22.8493H177.563L178.086 21.4052H181.295L181.598 22.8493H183.913L181.893 13.1767H179.756ZM180.123 15.7897L180.881 19.4218H178.806L180.123 15.7897ZM165.777 13.1767L163.707 22.8493H166.209L168.278 13.1767H165.777ZM162.075 13.1767L159.471 19.7602L158.417 14.1623C158.293 13.5375 157.805 13.1767 157.263 13.1767H153.005L152.946 13.4575C153.82 13.6472 154.813 13.9532 155.414 14.2805C155.783 14.4804 155.888 14.6552 156.009 15.1304L158.004 22.8493H160.649L164.703 13.1767H162.075Z" fill="#1A1F71"/>
<rect x="0.5" y="0.5" width="231" height="35" rx="1.5" stroke="#E2E8F0"/>
<defs>
<clipPath id="clip0">
<rect width="48.2925" height="16.771" fill="white" transform="translate(46.0873 9.61447)"/>
</clipPath>
</defs>
</svg>
