<svg width="155" height="35" viewBox="0 0 155 35" fill="none" xmlns="http://www.w3.org/2000/svg">
<g clip-path="url(#clip0)">
<path d="M13.524 10.1615H8.34819V20.1585C8.34819 21.0216 8.54389 21.638 8.93014 22.0131C9.32154 22.3881 9.89834 22.5936 10.6605 22.6398C11.4279 22.6809 12.3807 22.6758 13.5188 22.6193V26.6571C10.0683 27.0732 7.59113 26.7753 6.08733 25.7632C4.58352 24.7512 3.83162 22.8813 3.83162 20.1637V10.1615H0V5.83077H3.84192V1.33054L8.34819 0V5.83077H13.524V10.1615Z" fill="#26536B"/>
<path d="M32.615 5.83068H37.1212V26.6519H32.615V23.6518C30.9154 26.0098 28.4795 27.1913 25.3071 27.1913C22.4385 27.1913 19.9923 26.1279 17.958 24.0062C15.9237 21.8846 14.9092 19.2954 14.9092 16.2387C14.9092 13.1564 15.9237 10.5621 17.958 8.45067C19.9871 6.33927 22.4385 5.28613 25.3071 5.28613C28.4795 5.28613 30.9154 6.45229 32.615 8.78459V5.83068ZM21.3004 21.0112C22.5518 22.275 24.1226 22.9069 26.0178 22.9069C27.9078 22.9069 29.4837 22.275 30.7352 21.0112C31.9867 19.7475 32.615 18.1601 32.615 16.2439C32.615 14.3277 31.9867 12.7403 30.7352 11.4765C29.4837 10.2127 27.9078 9.58087 26.0178 9.58087C24.1226 9.58087 22.5518 10.2127 21.3004 11.4765C20.0489 12.7403 19.4206 14.3277 19.4206 16.2439C19.4206 18.1601 20.0489 19.7475 21.3004 21.0112Z" fill="#26536B"/>
<path d="M75.6179 5.83068H80.1242V26.6519H75.6179V23.6518C73.9184 26.0098 71.4824 27.1913 68.31 27.1913C65.4414 27.1913 62.9952 26.1279 60.9609 24.0062C58.9267 21.8846 57.9121 19.2954 57.9121 16.2387C57.9121 13.1564 58.9267 10.5621 60.9609 8.45067C62.99 6.33927 65.4414 5.28613 68.31 5.28613C71.4824 5.28613 73.9184 6.45229 75.6179 8.78459V5.83068ZM64.3033 21.0112C65.5547 22.275 67.1255 22.9069 69.0207 22.9069C70.9108 22.9069 72.4867 22.275 73.7381 21.0112C74.9896 19.7475 75.6179 18.1601 75.6179 16.2439C75.6179 14.3277 74.9896 12.7403 73.7381 11.4765C72.4867 10.2127 70.9108 9.58087 69.0207 9.58087C67.1255 9.58087 65.5547 10.2127 64.3033 11.4765C63.0518 12.7403 62.4235 14.3277 62.4235 16.2439C62.4235 18.1601 63.0518 19.7475 64.3033 21.0112Z" fill="#26536B"/>
<path d="M96.3415 5.29138C99.2101 5.29138 101.656 6.35479 103.691 8.47647C105.72 10.5981 106.739 13.1873 106.739 16.244C106.739 19.3263 105.725 21.9206 103.691 24.032C101.656 26.1434 99.2101 27.1966 96.3415 27.1966C93.1691 27.1966 90.7331 26.0304 89.0336 23.6981V34.9846H84.5273V5.83079H89.0336V8.83094C90.7331 6.46781 93.1691 5.29138 96.3415 5.29138ZM90.9134 21.0113C92.1648 22.2751 93.7356 22.907 95.6308 22.907C97.5209 22.907 99.0968 22.2751 100.348 21.0113C101.6 19.7476 102.228 18.1602 102.228 16.244C102.228 14.3278 101.6 12.7404 100.348 11.4766C99.0968 10.2129 97.5209 9.58098 95.6308 9.58098C93.7356 9.58098 92.1648 10.2129 90.9134 11.4766C89.6619 12.7404 89.0336 14.3278 89.0336 16.244C89.0336 18.1602 89.6619 19.7476 90.9134 21.0113Z" fill="#26536B"/>
<path d="M126.546 5.83068H131.053V26.6519H126.546V23.6518C124.847 26.0098 122.411 27.1913 119.238 27.1913C116.37 27.1913 113.924 26.1279 111.889 24.0062C109.855 21.8846 108.841 19.2954 108.841 16.2387C108.841 13.1564 109.855 10.5621 111.889 8.45067C113.919 6.33927 116.37 5.28613 119.238 5.28613C122.411 5.28613 124.847 6.45229 126.546 8.78459V5.83068ZM115.232 21.0112C116.483 22.275 118.054 22.9069 119.949 22.9069C121.839 22.9069 123.415 22.275 124.667 21.0112C125.918 19.7475 126.546 18.1601 126.546 16.2439C126.546 14.3277 125.918 12.7403 124.667 11.4765C123.415 10.2127 121.839 9.58087 119.949 9.58087C118.054 9.58087 116.483 10.2127 115.232 11.4765C113.98 12.7403 113.352 14.3277 113.352 16.2439C113.352 18.1601 113.98 19.7475 115.232 21.0112Z" fill="#26536B"/>
<path d="M149.531 5.83081H154.331L146.317 27.3199C144.314 32.7037 140.915 35.262 136.131 34.9846V30.7772C137.552 30.8594 138.69 30.5615 139.555 29.8834C140.415 29.2052 141.126 28.1418 141.682 26.6983L141.893 26.2822L133.041 5.83595H137.969L144.195 20.9497L149.531 5.83081Z" fill="#26536B"/>
<path d="M53.5549 5.83081L50.5267 10.0793H50.537L48.5285 12.8688C47.5242 14.2662 48.5233 16.2132 50.2486 16.2132C50.9335 16.2132 51.5773 15.8844 51.9739 15.3296L56.6295 8.82582L58.7873 5.83081H53.5549Z" fill="#00A9DE"/>
<path d="M41.1848 5.83081V10.0793H50.527L53.5552 5.83081H41.1848Z" fill="#0B84AE"/>
<path d="M46.9064 22.4036L47.4884 21.5919L48.9407 19.5627C49.945 18.1603 48.9407 16.2133 47.2103 16.2133C46.5253 16.2133 45.8816 16.542 45.485 17.0969L40.7676 23.652L38.5789 26.6521H43.9812L46.927 22.4036H46.9064Z" fill="#B2F000"/>
<path d="M57.052 22.4038H46.927L43.9812 26.6523H57.052V22.4038Z" fill="#87B613"/>
</g>
<defs>
<clipPath id="clip0">
<rect width="154.331" height="35" fill="white"/>
</clipPath>
</defs>
</svg>